# xmcd
#
# Track frame offsets: 
#        150
#        22592
#        47260
#        62359
#        86006
#        136632
#        181206
#        214342
#        237229
#        247528
#        300378
#
# Disc length: 4697 seconds
#
# Revision: 1
# Processed by: cddbd v1.5.2PL0 Copyright (c) Steve Scherf et al.
# Submitted via: ExactAudioCopy v0.99pb3
#
DISCID=7212570b
DTITLE=Clifford Brown - Clifford Brown and The Ladies Of Jazz [CD2]
DYEAR=2008
DGENRE=Jazz
TTITLE0=What's New
TTITLE1=I've Got You Under My Skin
TTITLE2=No More
TTITLE3=Darn That Dream
TTITLE4=You Go To My Head
TTITLE5=Lover Come Back To Me
TTITLE6=Ballad Medley I
TTITLE7=Crazy He Calls Me
TTITLE8=There Is No Greater Love
TTITLE9=I'll Remember April
TTITLE10=Ballad Medley II
EXTD=YEAR: 2008
EXTT0=
EXTT1=
EXTT2=
EXTT3=
EXTT4=
EXTT5=
EXTT6=
EXTT7=
EXTT8=
EXTT9=
EXTT10=
PLAYORDER=
